<svg version="1.1" xmlns="http://www.w3.org/2000/svg" xmlns:xlink="http://www.w3.org/1999/xlink" width="78.28698" height="172.08714" viewBox="0,0,78.28698,172.08714"><g transform="translate(-200.863,-93.95643)"><g data-paper-data="{&quot;isPaintingLayer&quot;:true}" fill-rule="nonzero" stroke="#000000" stroke-width="2" stroke-linejoin="miter" stroke-miterlimit="10" stroke-dasharray="" stroke-dashoffset="0" style="mix-blend-mode: normal"><path d="M243.66117,136.38347l1.09091,6.45455l-9.63636,-0.90909v-2.72727z" fill="#fff700" stroke-linecap="round"/><path d="M250.9092,201.07242c-2.13767,1.96839 -6.49186,0.69479 -12.27249,0.76093c-4.14025,0.04737 -9.81198,2.6214 -12.23401,-0.92359c-3.88439,-5.68536 -9.09599,-30.03191 -9.09599,-33.60547c0,-4.30047 -4.03229,-24.66571 5.90087,-24.89535c4.83261,-0.11172 37.52061,-2.08756 38.23547,0.18373c2.22493,7.06916 0.65321,22.81545 0.65321,24.72278c0,0 -4.63242,27.72139 -11.18707,33.75697z" fill="#00d0ff" stroke-linecap="butt"/><path d="M234.83342,138.89707c-2.86642,0 -8.81875,-6.87718 -11.36074,-14.71677c-2.19801,-6.77875 -1.20358,-14.44843 -1.20358,-16.94872c0,-0.4993 1.06897,-3.21244 3.75112,-4.8125c3.64911,-2.17691 8.00838,-4.32367 13.06502,-4.38767c2.45559,-0.03108 7.71213,1.10104 9.81529,1.97672c4.63765,1.93095 6.78866,5.60109 6.88387,5.69308c5.41082,5.22852 0.61947,18.16458 -3.4236,25.91541c-0.72921,1.39794 -3.66816,5.71457 -7.84797,7.2403c-3.77292,1.3772 -8.80845,0.04014 -9.67941,0.04014z" fill="#fff700" stroke-linecap="butt"/><path d="M216.78381,160.67304c0,0.72551 -2.09788,5.75214 -3.19971,11.44758c-1.14398,5.91334 -0.41307,19.37568 -1.58614,25.15461c-1.24198,6.11843 -5.1615,-0.5385 -6.17996,-0.5385c-1.72018,0 -3.67417,-11.57597 -3.955,-25.64498c-0.19374,-9.70612 1.84713,-18.33212 1.84713,-19.26141c0,-1.08234 2.88471,-5.34628 5.689,-7.0059c3.09346,-1.83075 6.19954,-1.01248 7.72426,-1.01248c2.90691,0 -0.33957,14.58478 -0.33957,16.86107z" fill="#00d0ff" stroke-linecap="butt"/><g fill="#fff700" stroke-linecap="round"><path d="M204.46287,193.32467c0.76719,-0.12988 2.73732,-0.54148 4.24349,0.07068c1.50617,0.61216 5.01369,2.0165 6.88568,4.4526c1.87199,2.4361 -0.06643,3.52294 0.88072,5.6541c0.94715,2.13116 3.20264,1.74636 3.20264,3.53381c0,1.78746 -0.04443,6.03598 -3.20264,7.42101c-3.15821,1.38503 -6.25078,0.12003 -9.36773,-1.90826c-3.11695,-2.02828 -2.49502,-3.53335 -3.12257,-6.21951c-0.62755,-2.68617 -1.29371,-3.2274 -1.12092,-7.9047c0.17279,-4.6773 0.83414,-4.96985 1.60133,-5.09972z"/><path d="M210.46782,204.70354c1.19312,0.27305 0.62729,1.65978 1.60132,2.403c0.97403,0.74322 2.11074,0.42742 3.12257,1.20149c1.01183,0.77407 2.12009,1.40567 1.68139,2.47367"/><path d="M218.91686,208.66968c-1.08265,0.60461 -3.01909,0.04958 -3.96535,-0.7857c-0.94626,-0.83529 -0.59135,-1.65147 0.32027,-1.90826"/></g><path d="M262.80946,144.69468c1.52472,0 4.6308,-0.81829 7.72426,1.01248c2.8043,1.65962 5.689,5.92356 5.689,7.0059c0,0.92929 2.04087,9.55528 1.84713,19.26141c-0.28083,14.069 -2.23483,25.64498 -3.955,25.64498c-1.01846,0 -4.93798,6.65693 -6.17996,0.5385c-1.17307,-5.77893 -0.44216,-19.24127 -1.58614,-25.15461c-1.10183,-5.69545 -3.19972,-10.72207 -3.19972,-11.44758c0,-2.27629 -3.24649,-16.86107 -0.33957,-16.86107z" data-paper-data="{&quot;index&quot;:null}" fill="#00d0ff" stroke-linecap="butt"/><g data-paper-data="{&quot;index&quot;:null}" fill="#fff700" stroke-linecap="round"><path d="M278.12224,198.42439c0.17279,4.6773 -0.49337,5.21854 -1.12092,7.9047c-0.62755,2.68617 -0.00561,4.19123 -3.12257,6.21951c-3.11695,2.02828 -6.20952,3.29329 -9.36773,1.90826c-3.15821,-1.38503 -3.20264,-5.63354 -3.20264,-7.42101c0,-1.78746 2.25549,-1.40265 3.20264,-3.53381c0.94715,-2.13116 -0.99127,-3.218 0.88072,-5.6541c1.872,-2.4361 5.37951,-3.84044 6.88568,-4.4526c1.50617,-0.61216 3.4763,-0.20056 4.24349,-0.07068c0.76719,0.12988 1.42854,0.42242 1.60133,5.09972z"/><path d="M264.11068,210.7817c-0.4387,-1.068 0.66956,-1.6996 1.68139,-2.47367c1.01183,-0.77407 2.14854,-0.45828 3.12257,-1.20149c0.97404,-0.74322 0.4082,-2.12994 1.60132,-2.403"/><path d="M265.712,205.97571c0.91161,0.25678 1.26653,1.07297 0.32027,1.90826c-0.94626,0.83529 -2.8827,1.39032 -3.96535,0.7857"/></g><path d="M229.29053,117.80517h6.84615" fill="none" stroke-linecap="round"/><path d="M245.44437,117.80517h6.84616" fill="none" stroke-linecap="round"/><path d="M233.75207,129.26671h14" fill="none" stroke-linecap="round"/><path d="M245.40702,142.60249c0,0 -0.15985,1.76897 -1.57177,4.10084c-1.14609,1.89284 -3.47247,2.87833 -4.36573,2.87833c-0.93625,0 -3.60121,-1.78444 -4.79065,-3.90035c-1.21117,-2.15457 -0.93852,-3.07882 -0.93852,-3.07882" fill="#fff700" stroke-linecap="round"/><path d="M217.69462,169.37204l-0.68182,-7.12121h45.15152l-0.90909,7.12121z" fill="#af00ff" stroke-linecap="butt"/><path d="M221.70977,183.69023l-1.81818,-7.12121h39.24243l-1.28788,7.12121z" fill="#af00ff" stroke-linecap="butt"/><path d="M263.64949,120.57952c0,0.82891 -3.35235,1.84841 -6.03797,0.34701c-1.84921,-1.03381 -3.12565,-4.41855 -3.81202,-5.20911c-0.70729,-0.81465 0.36521,-5.72732 -0.70707,-6.30084c-0.69574,-0.37213 -1.55587,3.84041 -2.6034,4.14257c-1.36195,0.39285 -2.94441,-3.06573 -3.90615,-3.49062c-0.87337,-0.38585 -2.07561,1.71279 -2.88171,1.31776c-1.42056,-0.69613 -2.75924,-5.2416 -3.72257,-5.2416c-0.31853,0 0.06284,2.76204 -0.53449,3.04871c-1.17753,0.56511 -3.54244,-0.99334 -4.25395,0.1908c-0.65208,1.08522 0.50981,2.41843 -0.33436,3.25742c-0.78512,0.7803 -2.04893,2.53221 -3.06909,2.53675c-1.51419,0.00675 -2.82715,-1.91317 -3.95869,-1.00123c-1.3295,1.07149 -3.54035,7.30952 -5.21551,9.00984c-2.15704,2.18944 -3.65531,-0.31821 -3.65531,-1.30882c0,-1.15661 0.01288,-10.64963 2.07678,-16.4153c1.03805,-2.89988 3.77513,-4.70232 4.64787,-5.64382c2.33426,-2.51817 13.02792,-4.86261 14.01788,-4.86261c2.24709,0 8.09629,1.05201 11.7765,4.77921c4.48674,4.54403 12.17327,18.58583 12.17327,20.84389z" fill="#322817" stroke-linecap="butt"/><g fill="#3e2400"><path d="M242.25203,262.10394c0,2.96195 -12.27535,5.37496 -14.08607,-1.54952c-0.09072,-0.34694 -2.55962,-38.25582 -3.38268,-52.07191c-0.22017,-3.69577 0.9993,-5.10254 0.9993,-5.14718c0,-3.54315 8.36236,-1.82167 12.39453,-1.82167c0.38393,0 15.51095,-1.26548 15.83988,-0.39928c0.21298,0.56086 10.45773,59.50958 8.31134,61.32015c-4.07885,1.43555 -0.93202,3.36709 -12.48956,0.87394c-1.32443,-3.73101 -5.57965,-53.86282 -5.98506,-53.55381c-0.99432,0.75789 -3.26123,-0.39865 -3.17211,0.29873c1.92364,15.05194 1.57044,49.4087 1.57044,52.05053z" stroke-linecap="butt"/><path d="M228.43977,260.62071c0,0 0.84007,-2.12987 2.47764,-3.0632c1.54375,-0.87987 3.76656,-1.23298 4.84228,-1.2262c0.92242,0.00581 2.63479,0.83231 3.68729,1.59365c1.44355,1.04422 2.20708,2.77906 2.20708,2.77906" stroke-linecap="round"/><path d="M249.15406,260.2042c0,0 0.84007,-2.12986 2.47763,-3.0632c1.54375,-0.87987 3.76656,-1.23298 4.84228,-1.2262c0.92242,0.00582 2.6348,0.83231 3.68729,1.59365c1.44355,1.04421 2.20709,2.77906 2.20709,2.77906" stroke-linecap="round"/></g></g></g></svg>