<svg version="1.1" xmlns="http://www.w3.org/2000/svg" xmlns:xlink="http://www.w3.org/1999/xlink" width="583.04861" height="411.75403" viewBox="0,0,583.04861,411.75403"><defs><linearGradient x1="246.25" y1="-3.53081" x2="246.25" y2="238.69141" gradientUnits="userSpaceOnUse" id="color-1"><stop offset="0" stop-color="#8a2424"/><stop offset="1" stop-color="#5f1919"/></linearGradient><linearGradient x1="-35.3125" y1="327.69532" x2="544.6875" y2="327.69532" gradientUnits="userSpaceOnUse" id="color-2"><stop offset="0" stop-color="#171717"/><stop offset="1" stop-color="#0e0000"/></linearGradient><linearGradient x1="259.0625" y1="222.44141" x2="259.0625" y2="282.4414" gradientUnits="userSpaceOnUse" id="color-3"><stop offset="0" stop-color="#7f7f7f"/><stop offset="1" stop-color="#a9a9a9"/></linearGradient></defs><g transform="translate(37.25,29.5101)"><g data-paper-data="{&quot;isPaintingLayer&quot;:true}" fill-rule="nonzero" stroke="#000000" stroke-width="2" stroke-miterlimit="10" stroke-dasharray="" stroke-dashoffset="0" style="mix-blend-mode: normal"><path d="M-36.25,238.69141v-242.22222h565v242.22222z" fill="url(#color-1)" stroke-linecap="butt" stroke-linejoin="miter"/><rect x="-70.625" y="548.51563" transform="scale(0.5,0.5)" width="1160" height="213.75" data-paper-data="{&quot;zoomLevel&quot;:0.8}" fill="url(#color-2)" stroke-linecap="butt" stroke-linejoin="round" vector-effect="non-scaling-stroke"/><path d="M-25.625,282.4414v-59.99999h569.375v59.99999z" fill="url(#color-3)" stroke-linecap="butt" stroke-linejoin="miter"/><path d="M68.88164,222.85808v58.21428" fill="none" stroke-linecap="round" stroke-linejoin="miter"/><path d="M119.95307,223.21522v58.21429" fill="none" stroke-linecap="round" stroke-linejoin="miter"/><path d="M170.66736,222.50093v58.57143" fill="none" stroke-linecap="round" stroke-linejoin="miter"/><path d="M221.73878,222.50093v60.71428" fill="none" stroke-linecap="round" stroke-linejoin="miter"/><path d="M16.1875,222.87301v59" fill="none" stroke-linecap="round" stroke-linejoin="miter"/><path d="M275.52083,222.20634v60.33333" fill="none" stroke-linecap="round" stroke-linejoin="miter"/><path d="M322.85417,223.20634v59.66666" fill="none" stroke-linecap="round" stroke-linejoin="miter"/><path d="M368.85417,223.53968v58" fill="none" stroke-linecap="round" stroke-linejoin="miter"/><path d="M405.52084,223.20634v57.66666" fill="none" stroke-linecap="round" stroke-linejoin="miter"/><path d="M446.1875,224.20634v57.33333" fill="none" stroke-linecap="round" stroke-linejoin="miter"/><path d="M-14.39236,197.04546h517.22222" fill="none" stroke-linecap="round" stroke-linejoin="miter"/><path d="M-21.61458,158.15657h546.66667" fill="none" stroke-linecap="round" stroke-linejoin="miter"/><path d="M-17.7257,123.71212h507.22223" fill="none" stroke-linecap="round" stroke-linejoin="miter"/><path d="M-13.8368,83.15657h540" fill="none" stroke-linecap="round" stroke-linejoin="miter"/><path d="M-13.28125,44.82323h512.22222" fill="none" stroke-linecap="round" stroke-linejoin="miter"/><path d="M-12.17014,8.71212h513.33333" fill="none" stroke-linecap="round" stroke-linejoin="miter"/><path d="M32.82986,7.60101v-23.88889" fill="none" stroke-linecap="round" stroke-linejoin="miter"/><path d="M105.60764,7.60101v-33.33333" fill="none" stroke-linecap="round" stroke-linejoin="miter"/><path d="M161.71875,8.15657v-36.66666" fill="none" stroke-linecap="round" stroke-linejoin="miter"/><path d="M211.1632,7.04546v-23.33333" fill="none" stroke-linecap="round" stroke-linejoin="miter"/><path d="M270.05208,7.04546v-20.55555" fill="none" stroke-linecap="round" stroke-linejoin="miter"/><path d="M334.49653,7.04546v-17.22222" fill="none" stroke-linecap="round" stroke-linejoin="miter"/><path d="M419.49653,7.60101v-19.44444" fill="none" stroke-linecap="round" stroke-linejoin="miter"/><path d="M465.05209,8.71212v-22.22222" fill="none" stroke-linecap="round" stroke-linejoin="miter"/><path d="M62.27431,9.82323v33.88889" fill="none" stroke-linecap="round" stroke-linejoin="miter"/><path d="M133.38542,9.26768v34.44445" fill="none" stroke-linecap="round" stroke-linejoin="miter"/><path d="M180.05209,8.71212v35" fill="none" stroke-linecap="round" stroke-linejoin="miter"/><path d="M241.71875,9.82323v35" fill="none" stroke-linecap="round" stroke-linejoin="miter"/><path d="M311.16319,10.93435v33.33333" fill="none" stroke-linecap="round" stroke-linejoin="miter"/><path d="M377.27431,8.71212v36.11111" fill="none" stroke-linecap="round" stroke-linejoin="miter"/><path d="M455.60764,8.71212v35" fill="none" stroke-linecap="round" stroke-linejoin="miter"/><path d="M28.38542,44.82323v37.22223" fill="none" stroke-linecap="round" stroke-linejoin="miter"/><path d="M98.38542,44.82323v36.11111" fill="none" stroke-linecap="round" stroke-linejoin="miter"/><path d="M155.60764,44.26768v38.33334" fill="none" stroke-linecap="round" stroke-linejoin="miter"/><path d="M212.27431,44.82323v37.22223" fill="none" stroke-linecap="round" stroke-linejoin="miter"/><path d="M280.05208,45.37879v37.77778" fill="none" stroke-linecap="round" stroke-linejoin="miter"/><path d="M337.82986,45.37879v37.22222" fill="none" stroke-linecap="round" stroke-linejoin="miter"/><path d="M410.05209,45.37879v37.77778" fill="none" stroke-linecap="round" stroke-linejoin="miter"/><path d="M472.27431,45.37879v37.22222" fill="none" stroke-linecap="round" stroke-linejoin="miter"/><path d="M49.49653,84.26768v36.66667" fill="none" stroke-linecap="round" stroke-linejoin="miter"/><path d="M131.71875,82.60101v40" fill="none" stroke-linecap="round" stroke-linejoin="miter"/><path d="M219.49653,82.60101v39.44445" fill="none" stroke-linecap="round" stroke-linejoin="miter"/><path d="M296.16319,83.71212v40.55556" fill="none" stroke-linecap="round" stroke-linejoin="miter"/><path d="M377.06189,84.34121v38.19445" fill="none" stroke-linecap="round" stroke-linejoin="miter"/><path d="M462.6875,83.00242v40" fill="none" stroke-linecap="round" stroke-linejoin="miter"/><path d="M15.05209,125.10451v31.11111" fill="none" stroke-linecap="round" stroke-linejoin="miter"/><path d="M100.05209,123.9934v33.88889" fill="none" stroke-linecap="round" stroke-linejoin="miter"/><path d="M191.71875,125.10451v31.66666" fill="none" stroke-linecap="round" stroke-linejoin="miter"/><path d="M267.27431,122.88229v34.44445" fill="none" stroke-linecap="round" stroke-linejoin="miter"/><path d="M335.05208,123.9934v33.33333" fill="none" stroke-linecap="round" stroke-linejoin="miter"/><path d="M418.94097,123.9934v34.44445" fill="none" stroke-linecap="round" stroke-linejoin="miter"/><path d="M477.27431,123.43785v34.44444" fill="none" stroke-linecap="round" stroke-linejoin="miter"/><path d="M30.60764,158.43785v39.44444" fill="none" stroke-linecap="round" stroke-linejoin="miter"/><path d="M89.49653,157.88229v38.88889" fill="none" stroke-linecap="round" stroke-linejoin="miter"/><path d="M157.27431,159.54896v37.77777" fill="none" stroke-linecap="round" stroke-linejoin="miter"/><path d="M230.60764,158.9934v36.66666" fill="none" stroke-linecap="round" stroke-linejoin="miter"/><path d="M312.27431,158.43785v37.22222" fill="none" stroke-linecap="round" stroke-linejoin="miter"/><path d="M386.71875,158.43785v36.66666" fill="none" stroke-linecap="round" stroke-linejoin="miter"/><path d="M452.82986,159.54896v37.22222" fill="none" stroke-linecap="round" stroke-linejoin="miter"/><path d="M36.71875,197.88229v23.88889" fill="none" stroke-linecap="round" stroke-linejoin="miter"/><path d="M117.27431,196.77118v24.44445" fill="none" stroke-linecap="round" stroke-linejoin="miter"/><path d="M186.1632,198.43785v22.77777" fill="none" stroke-linecap="round" stroke-linejoin="miter"/><path d="M246.1632,198.43785v23.33333" fill="none" stroke-linecap="round" stroke-linejoin="miter"/><path d="M317.82986,197.88229v23.33333" fill="none" stroke-linecap="round" stroke-linejoin="miter"/><path d="M391.16319,197.88229v22.77778" fill="none" stroke-linecap="round" stroke-linejoin="miter"/><path d="M460.05208,197.88229v23.88889" fill="none" stroke-linecap="round" stroke-linejoin="miter"/></g></g></svg>