<svg version="1.1" xmlns="http://www.w3.org/2000/svg" xmlns:xlink="http://www.w3.org/1999/xlink" width="78.28698" height="175.86789" viewBox="0,0,78.28698,175.86789"><g transform="translate(-200.86299,-92.31605)"><g data-paper-data="{&quot;isPaintingLayer&quot;:true}" fill-rule="nonzero" stroke-linejoin="miter" stroke-miterlimit="10" stroke-dasharray="" stroke-dashoffset="0" style="mix-blend-mode: normal"><path d="M243.66117,133.84194l1.09091,6.45455l-9.63636,-0.90909v-2.72728z" fill="#ffffff" stroke="#000000" stroke-width="2" stroke-linecap="round"/><path d="M250.9092,198.53089c-2.13767,1.96839 -6.49186,0.69479 -12.27249,0.76093c-4.14025,0.04737 -9.81198,2.62141 -12.23401,-0.92359c-3.88439,-5.68536 -9.09599,-30.03191 -9.09599,-33.60547c0,-4.30047 -4.03229,-24.66571 5.90087,-24.89535c4.83261,-0.11172 37.52061,-2.08757 38.23547,0.18372c2.22493,7.06916 0.65321,22.81545 0.65321,24.72278c0,0 -4.63242,27.7214 -11.18707,33.75698z" fill="#5800ff" stroke="#000000" stroke-width="2" stroke-linecap="butt"/><path d="M234.83342,136.47602c-2.86642,0 -8.81875,-6.87718 -11.36074,-14.71677c-2.19801,-6.77875 -1.20358,-14.44843 -1.20358,-16.94872c0,-0.4993 1.06897,-3.21244 3.75112,-4.8125c3.64911,-2.17691 8.00838,-4.32367 13.06502,-4.38767c2.45559,-0.03108 7.71213,1.10104 9.81529,1.97672c4.63765,1.93095 6.78866,5.60108 6.88387,5.69307c5.41082,5.22852 0.61947,18.16458 -3.4236,25.91541c-0.72921,1.39794 -3.66816,5.71457 -7.84797,7.2403c-3.77292,1.3772 -8.80845,0.04014 -9.67941,0.04014z" fill="#ffffff" stroke="#000000" stroke-width="2" stroke-linecap="butt"/><path d="M216.78381,160.39582c0,0.8219 -2.09788,6.51634 -3.19971,12.96846c-1.14398,6.69896 -0.41307,21.94985 -1.58614,28.49655c-1.24198,6.9313 -5.1615,-0.61004 -6.17996,-0.61004c-1.72018,0 -3.67417,-13.11391 -3.955,-29.05206c-0.19374,-10.99564 1.84713,-20.76765 1.84713,-21.8204c0,-1.22614 2.88471,-6.05656 5.689,-7.93668c3.09346,-2.07398 6.19954,-1.14699 7.72426,-1.14699c2.90691,0 -0.33957,16.52245 -0.33957,19.10116z" fill="#5800ff" stroke="#000000" stroke-width="2" stroke-linecap="butt"/><g fill="#ffffff" stroke="#000000" stroke-width="2" stroke-linecap="round"><path d="M204.46287,197.38541c0.76719,-0.14713 2.73732,-0.61342 4.24349,0.08007c1.50617,0.69349 5.01369,2.2844 6.88568,5.04415c1.87199,2.75975 -0.06643,3.99098 0.88072,6.40528c0.94715,2.4143 3.20264,1.97837 3.20264,4.0033c0,2.02493 -0.04443,6.83789 -3.20264,8.40693c-3.15821,1.56904 -6.25078,0.13598 -9.36773,-2.16178c-3.11695,-2.29775 -2.49502,-4.00278 -3.12257,-7.04581c-0.62755,-3.04304 -1.29371,-3.65618 -1.12092,-8.95489c0.17279,-5.29871 0.83414,-5.63012 1.60133,-5.77725z"/><path d="M210.46782,210.27603c1.19312,0.30933 0.62729,1.88029 1.60132,2.72225c0.97403,0.84196 2.11074,0.48421 3.12257,1.36112c1.01183,0.87691 2.12009,1.59242 1.68139,2.80231"/><path d="M218.91686,214.76909c-1.08265,0.68494 -3.01909,0.05617 -3.96535,-0.89009c-0.94626,-0.94626 -0.59135,-1.87088 0.32027,-2.16178"/></g><path d="M262.80946,142.29465c1.52472,0 4.6308,-0.92701 7.72426,1.14699c2.8043,1.88011 5.689,6.71054 5.689,7.93668c0,1.05275 2.04087,10.82477 1.84713,21.82041c-0.28083,15.93815 -2.23483,29.05205 -3.955,29.05205c-1.01846,0 -4.93798,7.54134 -6.17996,0.61004c-1.17307,-6.54669 -0.44216,-21.79759 -1.58614,-28.49655c-1.10183,-6.45212 -3.19972,-12.14657 -3.19972,-12.96847c0,-2.57871 -3.24649,-19.10116 -0.33957,-19.10116z" data-paper-data="{&quot;index&quot;:null}" fill="#5800ff" stroke="#000000" stroke-width="2" stroke-linecap="butt"/><g data-paper-data="{&quot;index&quot;:null}" fill="#ffffff" stroke="#000000" stroke-width="2" stroke-linecap="round"><path d="M278.12224,203.16266c0.17279,5.29871 -0.49337,5.91186 -1.12092,8.95489c-0.62755,3.04304 -0.00561,4.74805 -3.12257,7.04581c-3.11695,2.29775 -6.20952,3.73083 -9.36773,2.16179c-3.15821,-1.56904 -3.20264,-6.38199 -3.20264,-8.40693c0,-2.02493 2.25549,-1.589 3.20264,-4.0033c0.94715,-2.4143 -0.99127,-3.64553 0.88072,-6.40528c1.872,-2.75975 5.37951,-4.35066 6.88568,-5.04415c1.50617,-0.69349 3.4763,-0.22719 4.24349,-0.08006c0.76719,0.14713 1.42854,0.47853 1.60133,5.77724z"/><path d="M264.11068,217.16171c-0.4387,-1.20989 0.66956,-1.9254 1.68139,-2.80231c1.01183,-0.87691 2.14854,-0.51916 3.12257,-1.36112c0.97404,-0.84196 0.4082,-2.41292 1.60132,-2.72225"/><path d="M265.71198,211.71722c0.91161,0.2909 1.26653,1.21552 0.32027,2.16178c-0.94626,0.94626 -2.8827,1.57503 -3.96535,0.89009"/></g><g fill="#5800ff" stroke="#000000" stroke-width="2"><path d="M242.25203,263.96657c0,3.17478 -14.45484,5.76118 -16.26556,-1.66086c-0.09072,-0.37187 -0.38013,-41.00468 -1.20319,-55.81351c-0.22017,-3.96133 0.9993,-5.46918 0.9993,-5.51703c0,-3.79774 8.36236,-1.95256 12.39453,-1.95256c0.38393,0 15.51095,-1.35641 15.83988,-0.42797c0.21298,0.60116 10.45773,63.78561 8.31134,65.72628c-4.07885,1.5387 -3.23971,3.60903 -14.79725,0.93674c-1.32443,-3.9991 -3.27196,-57.73311 -3.67737,-57.40189c-0.99432,0.81235 -3.26123,-0.4273 -3.17211,0.32019c1.92364,16.13349 1.57044,52.95894 1.57044,55.7906z" stroke-linecap="butt"/><path d="M227.92695,261.86394c0,0 0.84007,-2.28291 2.47764,-3.28331c1.54375,-0.94309 3.76656,-1.32158 4.84228,-1.31431c0.92242,0.00623 2.63479,0.89212 3.68729,1.70816c1.44355,1.11925 2.20708,2.97875 2.20708,2.97875" stroke-linecap="round"/><path d="M248.38483,261.41751c0,0 0.84007,-2.28291 2.47763,-3.28332c1.54375,-0.94309 3.76656,-1.32157 4.84228,-1.3143c0.92242,0.00624 2.6348,0.89212 3.68729,1.70816c1.44355,1.11924 2.20709,2.97875 2.20709,2.97875" stroke-linecap="round"/></g><g stroke="#000000" stroke-width="2"><path d="M242.25203,263.96657c0,3.17478 -14.45484,5.76118 -16.26556,-1.66086c-0.09072,-0.37187 -0.38013,-41.00468 -1.20319,-55.81351c-0.22017,-3.96133 0.9993,-5.46918 0.9993,-5.51703c0,-3.79774 8.36236,-1.95256 12.39453,-1.95256c0.38393,0 15.51095,-1.35641 15.83988,-0.42797c0.21298,0.60116 10.45773,63.78561 8.31134,65.72628c-4.07885,1.5387 -3.23971,3.60903 -14.79725,0.93674c-1.32443,-3.9991 -3.27196,-57.73311 -3.67737,-57.40189c-0.99432,0.81235 -3.26123,-0.4273 -3.17211,0.32019c1.92364,16.13349 1.57044,52.95894 1.57044,55.7906z" fill="#5800ff" stroke-linecap="butt"/><path d="M234.12695,267.18394c0,0 -3.92817,-0.96259 -5.77329,-2.41494c-1.21895,-0.95948 -0.67216,-2.53848 -0.54294,-2.74548c0.67372,-1.07925 1.489,-2.76792 2.59387,-3.44289c1.54375,-0.94309 3.76656,-1.32158 4.84228,-1.31431c0.92242,0.00623 2.63479,0.89212 3.68729,1.70816c1.44355,1.11925 3.08708,5.53875 3.08708,5.53875" fill="#000000" stroke-linecap="round"/><path d="M262.13482,263.79251c0,0 -11.07443,2.21215 -13.7824,0.89441c-1.37311,-0.66818 -0.19249,-2.65833 -0.7994,-3.37162c-1.22773,-1.44292 2.64623,-2.77596 3.30942,-3.18111c1.54375,-0.94309 3.76656,-1.32158 4.84228,-1.31431c0.92242,0.00624 2.6348,0.89212 3.68729,1.70816c1.44355,1.11924 2.20709,2.97875 2.20709,2.97875" fill="#000000" stroke-linecap="round"/></g><path d="M233.38984,198.38212v-58.36735h14.59184v58.36735z" fill="#fff400" stroke="#000000" stroke-width="2" stroke-linecap="butt"/><path d="M249.41011,150.84024c0,-3.03483 2.46021,-5.49505 5.49504,-5.49505c3.03483,0 5.49505,2.46022 5.49505,5.49505c0,3.03483 -2.46022,5.49505 -5.49505,5.49505c-3.03483,0 -5.49504,-2.46022 -5.49504,-5.49505z" fill="#ff3e00" stroke="#000000" stroke-width="2" stroke-linecap="butt"/><path d="M246.99315,162.44221c0.25672,1.73495 1.04427,4.67823 -1.86154,5.05725c-2.77582,0.36207 -3.42997,-4.17584 -4.09649,-7.66943c-0.10118,0.62683 -0.17363,1.25394 -0.18973,1.8742c-0.02773,1.06827 -0.19343,4.50367 -2.40968,3.56133c-4.18157,-1.77799 -2.54822,-6.44339 -1.87683,-10.22617c0.04,-0.22534 0.08934,-0.66031 0.15468,-1.16227c-0.03254,0.02531 -0.06499,0.05068 -0.09734,0.0761c-0.8683,0.68223 -0.05819,2.65693 -0.79693,3.39567c-1.91951,1.91951 -4.21131,1.32705 -4.6875,-1.25c-0.83245,-4.505 3.51807,-6.81878 6.46018,-8.8459c0.12441,-0.08572 0.31974,-0.21402 0.55631,-0.35039c0.18111,-0.13787 0.38159,-0.25159 0.59665,-0.33634c0.38061,-0.23422 0.82873,-0.36932 1.30842,-0.36932c0.48302,0 0.93405,0.13699 1.31636,0.37423c2.46919,0.21279 4.63173,3.3107 6.29727,6.10537c0.69674,1.16908 2.41109,4.36357 1.93863,5.45027c-0.77411,1.78045 -1.56814,2.3534 -3.03204,1.97489c0.18428,0.87194 0.3212,1.67573 0.41958,2.34053z" fill="#4aa53d" stroke="#000000" stroke-width="1" stroke-linecap="butt"/><path d="M259.53255,109.91513c0,2.01914 -3.0275,0.14889 -6.67098,0.22295c-2.45991,0.05 -5.16983,2.46116 -7.53552,1.93989c-1.96147,-0.4322 -3.39618,-2.99986 -4.4877,-2.99986c-0.70213,0 -2.8236,4.55173 -4.43328,3.67461c-0.97111,-0.52916 -1.28825,-6.73549 -2.32097,-6.61641c-1.76951,0.20404 -3.28272,3.80378 -4.89167,4.34193c-2.85327,0.95434 -4.18037,3.42395 -6.08855,3.37881c-1.80747,-0.04275 -1.80818,-2.59969 -1.80818,-3.8622c0,-1.10944 -0.95562,-9.63609 3.78673,-13.51917c1.53697,-1.25848 2.99134,-0.87884 5.42499,-1.11521c3.77487,-0.36662 10.7033,-2.54442 11.34907,-2.54442c0.62142,0 1.39252,0.79799 2.75806,1.27054c3.47111,1.20119 8.9296,3.34712 11.85304,7.43209c3.99171,5.5777 3.06495,6.163 3.06495,8.39645z" fill="#4aa53d" stroke="#000000" stroke-width="1" stroke-linecap="butt"/><g fill="#ffec6b" stroke="#000000" stroke-width="1" stroke-linecap="butt"><path d="M234.24745,116.17575c0,2.24366 -1.06099,4.0625 -2.36979,4.0625c-1.3088,0 -2.62984,-5.08691 -2.62984,-7.33057c0,-1.10227 4.99963,1.02441 4.99963,3.26807z"/><path d="M231.9558,116.43617c0,-0.74789 0.17489,-1.35417 0.39062,-1.35417c0.21573,0 0.39062,0.60629 0.39062,1.35417c0,0.74789 -0.1749,1.35417 -0.39063,1.35417c-0.21574,0 -0.39063,-0.60629 -0.39063,-1.35417z"/></g><g data-paper-data="{&quot;index&quot;:null}" fill="#ffec6b" stroke="#000000" stroke-width="1" stroke-linecap="butt"><path d="M252.30643,113.24101c0,2.24366 -1.93248,6.99724 -3.24128,6.99724c-1.3088,0 -2.3698,-1.81884 -2.3698,-4.0625c0,-2.24366 5.61107,-5.17839 5.61107,-2.93474z"/><path d="M248.98703,116.43617c0,0.74788 -0.17489,1.35415 -0.39062,1.35415c-0.21573,0 -0.39062,-0.60627 -0.39062,-1.35415c0,-0.74788 0.17489,-1.35417 0.39063,-1.35417c0.21573,0 0.39063,0.60628 0.39063,1.35417z"/></g><path d="M241.34566,119.16682c0,0 -0.57381,1.05927 -1.04275,1.25673c-0.32692,0.13765 -1.50189,-0.18529 -1.50189,-0.18529" fill="none" stroke="#000000" stroke-width="1" stroke-linecap="round"/><g stroke-linecap="round"><path d="M250.00089,129.00113c-0.46682,1.8658 -5.99826,3.16805 -9.74847,3.16805c-3.67708,0 -9.73412,-1.02444 -10.0967,-3.12889c-0.10392,-0.60317 -1.2277,-2.9905 0.12619,-3.74907c2.58809,-1.45006 6.13983,1.54093 9.25128,1.50222c4.19519,-0.05221 7.88383,-2.68447 10.10445,-1.50222c0.80179,0.42686 0.48533,3.22197 0.36325,3.70992z" fill="#ffec6b" stroke="none" stroke-width="0"/><path d="M249.21511,125.43814c0,0 -2.0589,2.34098 -4.24176,3.33931c-1.50721,0.68932 -3.58217,0.99473 -4.9013,0.99473c-1.60464,0 -4.12507,-0.54514 -5.89689,-1.41343c-1.81905,-0.89144 -3.79274,-3.08858 -3.79274,-3.08858" fill="none" stroke="#000000" stroke-width="1"/><path d="M233.06627,129.70197l1.26246,-4.2591" fill="none" stroke="#000000" stroke-width="1"/><path d="M237.43721,130.55851l0.38865,-4.53036" fill="none" stroke="#000000" stroke-width="1"/><path d="M242.5422,130.95747l-0.93923,-5.41194" fill="none" stroke="#000000" stroke-width="1"/><path d="M246.40258,130.64737l-1.84905,-5.24854" fill="none" stroke="#000000" stroke-width="1"/><path d="M248.35816,129.72031l-1.45594,-4.40123" fill="none" stroke="#000000" stroke-width="1"/><path d="M250.31523,124.44953c0.80179,0.42687 -0.19225,4.06364 -0.31433,4.55159c-0.46682,1.8658 -5.99826,3.16805 -9.74847,3.16805c-3.67708,0 -9.73412,-1.02444 -10.0967,-3.1289c-0.10392,-0.60317 -2.27488,-3.83215 -0.92099,-4.59073c2.58808,-1.45006 7.12541,1.21361 10.23686,1.1749c4.19519,-0.05221 8.62301,-2.35715 10.84363,-1.1749z" fill="none" stroke="#ff0000" stroke-width="3"/></g></g></g></svg>