<svg version="1.1" xmlns="http://www.w3.org/2000/svg" xmlns:xlink="http://www.w3.org/1999/xlink" width="78.28698" height="173.62755" viewBox="0,0,78.28698,173.62755"><g transform="translate(-200.863,-93.18654)"><g data-paper-data="{&quot;isPaintingLayer&quot;:true}" fill="#808080" fill-rule="nonzero" stroke="#000000" stroke-width="2" stroke-linejoin="miter" stroke-miterlimit="10" stroke-dasharray="" stroke-dashoffset="0" style="mix-blend-mode: normal"><path d="M243.66117,132.5386l1.09091,6.45455l-9.63636,-0.90909v-2.72727z" stroke-linecap="round"/><path d="M250.9092,197.22755c-2.13767,1.96839 -6.49186,0.69479 -12.27249,0.76093c-4.14025,0.04737 -9.81198,2.6214 -12.23401,-0.92359c-3.88439,-5.68536 -9.09599,-30.03191 -9.09599,-33.60547c0,-4.30047 -4.03229,-24.66571 5.90087,-24.89535c4.83261,-0.11172 37.52061,-2.08756 38.23547,0.18373c2.22493,7.06916 0.65321,22.81545 0.65321,24.72278c0,0 -4.63242,27.72139 -11.18707,33.75697z" stroke-linecap="butt"/><path d="M234.83342,135.0522c-2.86642,0 -8.81875,-6.87718 -11.36074,-14.71677c-2.19801,-6.77875 -1.20358,-14.44843 -1.20358,-16.94872c0,-0.4993 1.06897,-3.21244 3.75112,-4.8125c3.64911,-2.17691 8.00838,-4.32367 13.06502,-4.38767c2.45559,-0.03108 7.71213,1.10104 9.81529,1.97672c4.63765,1.93095 6.78866,5.60109 6.88387,5.69308c5.41082,5.22852 0.61947,18.16458 -3.4236,25.91541c-0.72921,1.39794 -3.66816,5.71457 -7.84797,7.2403c-3.77292,1.3772 -8.80845,0.04014 -9.67941,0.04014z" stroke-linecap="butt"/><path d="M216.78381,159.09248c0,0.8219 -2.09788,6.51634 -3.19971,12.96846c-1.14398,6.69896 -0.41307,21.94985 -1.58614,28.49655c-1.24198,6.9313 -5.1615,-0.61004 -6.17996,-0.61004c-1.72018,0 -3.67417,-13.11391 -3.955,-29.05206c-0.19374,-10.99564 1.84713,-20.76765 1.84713,-21.8204c0,-1.22614 2.88471,-6.05656 5.689,-7.93668c3.09346,-2.07398 6.19954,-1.14699 7.72426,-1.14699c2.90691,0 -0.33957,16.52245 -0.33957,19.10116z" stroke-linecap="butt"/><g stroke-linecap="round"><path d="M204.46287,196.08207c0.76719,-0.14713 2.73732,-0.61342 4.24349,0.08007c1.50617,0.69349 5.01369,2.2844 6.88568,5.04415c1.87199,2.75975 -0.06643,3.99098 0.88072,6.40528c0.94715,2.4143 3.20264,1.97837 3.20264,4.0033c0,2.02493 -0.04443,6.83789 -3.20264,8.40693c-3.15821,1.56904 -6.25078,0.13598 -9.36773,-2.16178c-3.11695,-2.29775 -2.49502,-4.00278 -3.12257,-7.04581c-0.62755,-3.04304 -1.29371,-3.65618 -1.12092,-8.95489c0.17279,-5.29871 0.83414,-5.63012 1.60133,-5.77725z"/><path d="M210.46782,208.97269c1.19312,0.30933 0.62729,1.88029 1.60132,2.72225c0.97403,0.84196 2.11074,0.48421 3.12257,1.36112c1.01183,0.87691 2.12009,1.59242 1.68139,2.80231"/><path d="M218.91686,213.46575c-1.08265,0.68494 -3.01909,0.05617 -3.96535,-0.89009c-0.94626,-0.94626 -0.59135,-1.87088 0.32027,-2.16178"/></g><path d="M262.80946,140.99131c1.52472,0 4.6308,-0.927 7.72426,1.14699c2.8043,1.88011 5.689,6.71054 5.689,7.93668c0,1.05275 2.04087,10.82476 1.84713,21.8204c-0.28083,15.93815 -2.23483,29.05206 -3.955,29.05206c-1.01846,0 -4.93798,7.54134 -6.17996,0.61004c-1.17307,-6.54669 -0.44216,-21.79759 -1.58614,-28.49655c-1.10183,-6.45212 -3.19972,-12.14656 -3.19972,-12.96846c0,-2.57871 -3.24649,-19.10116 -0.33957,-19.10116z" data-paper-data="{&quot;index&quot;:null}" stroke-linecap="butt"/><g data-paper-data="{&quot;index&quot;:null}" stroke-linecap="round"><path d="M278.12224,201.85932c0.17279,5.29871 -0.49337,5.91185 -1.12092,8.95489c-0.62755,3.04304 -0.00561,4.74806 -3.12257,7.04581c-3.11695,2.29775 -6.20952,3.73082 -9.36773,2.16178c-3.15821,-1.56904 -3.20264,-6.38199 -3.20264,-8.40693c0,-2.02493 2.25549,-1.589 3.20264,-4.0033c0.94715,-2.4143 -0.99127,-3.64553 0.88072,-6.40528c1.872,-2.75975 5.37951,-4.35066 6.88568,-5.04415c1.50617,-0.69349 3.4763,-0.2272 4.24349,-0.08007c0.76719,0.14713 1.42854,0.47854 1.60133,5.77725z"/><path d="M264.11068,215.85837c-0.4387,-1.20989 0.66956,-1.9254 1.68139,-2.80231c1.01183,-0.87691 2.14854,-0.51916 3.12257,-1.36112c0.97404,-0.84196 0.4082,-2.41292 1.60132,-2.72225"/><path d="M265.712,210.41388c0.91161,0.2909 1.26653,1.21552 0.32027,2.16178c-0.94626,0.94626 -2.8827,1.57503 -3.96535,0.89009"/></g><g><path d="M242.25203,262.66323c0,3.17478 -14.45484,5.76118 -16.26556,-1.66086c-0.09072,-0.37187 -0.38013,-41.00468 -1.20319,-55.81351c-0.22017,-3.96133 0.9993,-5.46918 0.9993,-5.51703c0,-3.79774 8.36236,-1.95256 12.39453,-1.95256c0.38393,0 15.51095,-1.35641 15.83988,-0.42797c0.21298,0.60116 10.45773,63.78561 8.31134,65.72628c-4.07885,1.5387 -3.23971,3.60903 -14.79725,0.93674c-1.32443,-3.9991 -3.27196,-57.73311 -3.67737,-57.40189c-0.99432,0.81235 -3.26123,-0.4273 -3.17211,0.32019c1.92364,16.13349 1.57044,52.95894 1.57044,55.7906z" stroke-linecap="butt"/><path d="M227.92695,260.5606c0,0 0.84007,-2.28291 2.47764,-3.28331c1.54375,-0.94309 3.76656,-1.32158 4.84228,-1.31431c0.92242,0.00623 2.63479,0.89212 3.68729,1.70816c1.44355,1.11925 2.20708,2.97875 2.20708,2.97875" stroke-linecap="round"/><path d="M248.38483,260.11417c0,0 0.84007,-2.2829 2.47763,-3.28331c1.54375,-0.94309 3.76656,-1.32158 4.84228,-1.31431c0.92242,0.00624 2.6348,0.89212 3.68729,1.70816c1.44355,1.11924 2.20709,2.97875 2.20709,2.97875" stroke-linecap="round"/></g></g></g></svg>