<svg version="1.1" xmlns="http://www.w3.org/2000/svg" xmlns:xlink="http://www.w3.org/1999/xlink" width="78.28698" height="171.38673" viewBox="0,0,78.28698,171.38673"><g transform="translate(-200.863,-94.72566)"><g data-paper-data="{&quot;isPaintingLayer&quot;:true}" fill-rule="nonzero" stroke-linejoin="miter" stroke-miterlimit="10" stroke-dasharray="" stroke-dashoffset="0" style="mix-blend-mode: normal"><path d="M243.66117,136.38347l1.09091,6.45455l-9.63636,-0.90909v-2.72727z" fill="#ffe180" stroke="#000000" stroke-width="2" stroke-linecap="round"/><path d="M250.9092,201.07242c-2.13767,1.96839 -6.49186,0.69479 -12.27249,0.76093c-4.14025,0.04737 -9.81198,2.6214 -12.23401,-0.92359c-3.88439,-5.68536 -9.09599,-30.03191 -9.09599,-33.60547c0,-4.30047 -4.03229,-24.66571 5.90087,-24.89535c4.83261,-0.11172 37.52061,-2.08756 38.23547,0.18373c2.22493,7.06916 0.65321,22.81545 0.65321,24.72278c0,0 -4.63242,27.72139 -11.18707,33.75697z" fill="#00ff12" stroke="#000000" stroke-width="2" stroke-linecap="butt"/><path d="M234.83342,138.89707c-2.86642,0 -8.81875,-6.87718 -11.36074,-14.71677c-2.19801,-6.77875 -1.20358,-14.44843 -1.20358,-16.94872c0,-0.4993 1.06897,-3.21244 3.75112,-4.8125c3.64911,-2.17691 8.00838,-4.32367 13.06502,-4.38767c2.45559,-0.03108 7.71213,1.10104 9.81529,1.97672c4.63765,1.93095 6.78866,5.60109 6.88387,5.69308c5.41082,5.22852 0.61947,18.16458 -3.4236,25.91541c-0.72921,1.39794 -3.66816,5.71457 -7.84797,7.2403c-3.77292,1.3772 -8.80845,0.04014 -9.67941,0.04014z" fill="#ffe180" stroke="#000000" stroke-width="2" stroke-linecap="butt"/><path d="M216.78381,160.67304c0,0.72551 -2.09788,5.75214 -3.19971,11.44758c-1.14398,5.91334 -0.41307,19.37568 -1.58614,25.15461c-1.24198,6.11843 -5.1615,-0.5385 -6.17996,-0.5385c-1.72018,0 -3.67417,-11.57597 -3.955,-25.64498c-0.19374,-9.70612 1.84713,-18.33212 1.84713,-19.26141c0,-1.08234 2.88471,-5.34628 5.689,-7.0059c3.09346,-1.83075 6.19954,-1.01248 7.72426,-1.01248c2.90691,0 -0.33957,14.58478 -0.33957,16.86107z" fill="#00ff12" stroke="#000000" stroke-width="2" stroke-linecap="butt"/><g fill="#ffe180" stroke="#000000" stroke-width="2" stroke-linecap="round"><path d="M204.46287,193.32467c0.76719,-0.12988 2.73732,-0.54148 4.24349,0.07068c1.50617,0.61216 5.01369,2.0165 6.88568,4.4526c1.87199,2.4361 -0.06643,3.52294 0.88072,5.6541c0.94715,2.13116 3.20264,1.74636 3.20264,3.53381c0,1.78746 -0.04443,6.03598 -3.20264,7.42101c-3.15821,1.38503 -6.25078,0.12003 -9.36773,-1.90826c-3.11695,-2.02828 -2.49502,-3.53335 -3.12257,-6.21951c-0.62755,-2.68617 -1.29371,-3.2274 -1.12092,-7.9047c0.17279,-4.6773 0.83414,-4.96985 1.60133,-5.09972z"/><path d="M210.46782,204.70354c1.19312,0.27305 0.62729,1.65978 1.60132,2.403c0.97403,0.74322 2.11074,0.42742 3.12257,1.20149c1.01183,0.77407 2.12009,1.40567 1.68139,2.47367"/><path d="M218.91686,208.66968c-1.08265,0.60461 -3.01909,0.04958 -3.96535,-0.7857c-0.94626,-0.83529 -0.59135,-1.65147 0.32027,-1.90826"/></g><path d="M262.80946,144.69468c1.52472,0 4.6308,-0.81829 7.72426,1.01248c2.8043,1.65962 5.689,5.92356 5.689,7.0059c0,0.92929 2.04087,9.55528 1.84713,19.26141c-0.28083,14.069 -2.23483,25.64498 -3.955,25.64498c-1.01846,0 -4.93798,6.65693 -6.17996,0.5385c-1.17307,-5.77893 -0.44216,-19.24127 -1.58614,-25.15461c-1.10183,-5.69545 -3.19972,-10.72207 -3.19972,-11.44758c0,-2.27629 -3.24649,-16.86107 -0.33957,-16.86107z" data-paper-data="{&quot;index&quot;:null}" fill="#00ff12" stroke="#000000" stroke-width="2" stroke-linecap="butt"/><g data-paper-data="{&quot;index&quot;:null}" fill="#ffe180" stroke="#000000" stroke-width="2" stroke-linecap="round"><path d="M278.12224,198.42439c0.17279,4.6773 -0.49337,5.21854 -1.12092,7.9047c-0.62755,2.68617 -0.00561,4.19123 -3.12257,6.21951c-3.11695,2.02828 -6.20952,3.29329 -9.36773,1.90826c-3.15821,-1.38503 -3.20264,-5.63354 -3.20264,-7.42101c0,-1.78746 2.25549,-1.40265 3.20264,-3.53381c0.94715,-2.13116 -0.99127,-3.218 0.88072,-5.6541c1.872,-2.4361 5.37951,-3.84044 6.88568,-4.4526c1.50617,-0.61216 3.4763,-0.20056 4.24349,-0.07068c0.76719,0.12988 1.42854,0.42242 1.60133,5.09972z"/><path d="M264.11068,210.7817c-0.4387,-1.068 0.66956,-1.6996 1.68139,-2.47367c1.01183,-0.77407 2.14854,-0.45828 3.12257,-1.20149c0.97404,-0.74322 0.4082,-2.12994 1.60132,-2.403"/><path d="M265.712,205.97571c0.91161,0.25678 1.26653,1.07297 0.32027,1.90826c-0.94626,0.83529 -2.8827,1.39032 -3.96535,0.7857"/></g><path d="M233.09821,121.22824v-6.84615" data-paper-data="{&quot;index&quot;:null}" fill="none" stroke="#000000" stroke-width="2" stroke-linecap="round"/><path d="M248.48283,121.22825v-6.84616" fill="none" stroke="#000000" stroke-width="2" stroke-linecap="round"/><path d="M247.75207,129.26671c0,0 -5.11434,2.82051 -7.52905,2.82051c-2.23861,0 -6.47095,-2.82051 -6.47095,-2.82051" fill="none" stroke="#000000" stroke-width="2" stroke-linecap="round"/><path d="M245.40702,142.60249c0,0 -0.15985,1.76897 -1.57177,4.10084c-1.14609,1.89284 -3.47247,2.87833 -4.36573,2.87833c-0.93625,0 -3.60121,-1.78444 -4.79065,-3.90035c-1.21117,-2.15457 -0.93852,-3.07882 -0.93852,-3.07882" fill="#ffe180" stroke="#000000" stroke-width="2" stroke-linecap="round"/><path d="M219.10487,176.67973l-2.09208,-14.4289h45.15152l-2.06294,14.4289z" fill="#ffd95a" stroke="#000000" stroke-width="2" stroke-linecap="butt"/><path d="M263.52128,119.31691c0,0.76318 -3.35235,1.70184 -6.03797,0.31949c-0.73432,-0.37798 -0.4239,-4.9761 -5.87443,-6.20894c-2.46053,-0.55654 -8.16334,-4.77922 -11.12854,-4.80103c-1.82325,-0.01341 -3.83731,3.25991 -5.33137,3.06293c-1.27442,-0.16803 -1.32492,-2.56802 -2.41538,-2.40782c-2.54447,0.37381 -4.81385,3.97748 -5.03379,4.14068c-1.3295,0.98652 -3.54035,6.7299 -5.21551,8.29539c-2.15704,2.01582 -3.65531,-0.29298 -3.65531,-1.20503c0,-1.60049 4.3731,-16.53918 6.98106,-19.12951c3.55843,-3.53438 10.88383,-5.65741 13.76147,-5.65741c2.24709,0 8.09629,0.96859 11.7765,4.40023c4.48674,4.1837 12.17327,17.11203 12.17327,19.19103z" fill="#322817" stroke="#000000" stroke-width="2" stroke-linecap="butt"/><path d="M227.14609,126.13484c0,-1.55773 1.26279,-2.82051 2.82051,-2.82051c1.55773,0 2.82051,1.26279 2.82051,2.82051c0,1.55773 -1.26279,2.82051 -2.82051,2.82051c-1.55773,0 -2.82051,-1.26279 -2.82051,-2.82051z" fill="#ff9e9e" stroke="#000000" stroke-width="0" stroke-linecap="butt"/><path d="M247.65891,125.55792c0,-1.52232 1.23409,-2.75641 2.75641,-2.75641c1.52232,0 2.75641,1.23409 2.75641,2.75641c0,1.52232 -1.23409,2.75641 -2.75641,2.75641c-1.52232,0 -2.75641,-1.23409 -2.75641,-2.75641z" fill="#ff9e9e" stroke="none" stroke-width="0" stroke-linecap="butt"/><g fill="#3e2400" stroke="#000000" stroke-width="2"><path d="M242.25203,262.10394c0,2.96195 -14.58304,5.50317 -16.39376,-1.42131c-0.09072,-0.34694 -0.25193,-38.38403 -1.07499,-52.20012c-0.22017,-3.69577 0.9993,-5.10254 0.9993,-5.14718c0,-3.54315 8.36236,-1.82167 12.39453,-1.82167c0.38393,0 15.51095,-1.26548 15.83988,-0.39928c0.21298,0.56086 10.45773,59.50958 8.31134,61.32015c-0.75579,0.266 -3.80373,2.37345 -6.86388,2.57165c-3.02405,0.19586 -6.06002,-1.51485 -6.90773,-1.69771c-1.32443,-3.73101 -4.2976,-53.86282 -4.70301,-53.55381c-0.99432,0.75789 -3.26123,-0.39865 -3.17211,0.29873c1.92364,15.05194 1.57044,49.4087 1.57044,52.05053z" stroke-linecap="butt"/><path d="M227.67054,260.62071c0,0 0.84007,-2.12987 2.47764,-3.0632c1.54375,-0.87987 3.76656,-1.23298 4.84228,-1.2262c0.92242,0.00581 2.63479,0.83231 3.68729,1.59365c1.44355,1.04422 2.20708,2.77906 2.20708,2.77906" stroke-linecap="round"/><path d="M249.15406,260.2042c0,0 0.84007,-2.12986 2.47763,-3.0632c1.54375,-0.87987 3.76656,-1.23298 4.84228,-1.2262c0.92242,0.00582 2.6348,0.83231 3.68729,1.59365c1.44355,1.04421 2.20709,2.77906 2.20709,2.77906" stroke-linecap="round"/></g></g></g></svg>